<mxfile host="app.diagrams.net" modified="2022-12-20T23:06:52.126Z" agent="5.0 (Windows NT 10.0; Win64; x64) AppleWebKit/537.36 (KHTML, like Gecko) Chrome/108.0.0.0 Safari/537.36" etag="SG3w8W0-tsRfy7rXGb2Z" version="20.7.4" type="github">
  <diagram id="JuO-4OBs19GBXd66AHE6" name="Page-1">
    <mxGraphModel dx="1478" dy="619" grid="1" gridSize="10" guides="1" tooltips="1" connect="1" arrows="0" fold="1" page="1" pageScale="1" pageWidth="850" pageHeight="1100" math="0" shadow="0">
      <root>
        <mxCell id="0" />
        <mxCell id="1" parent="0" />
        <mxCell id="UvikcmdrLjOBELN9xH5h-53" style="edgeStyle=none;rounded=0;orthogonalLoop=1;jettySize=auto;html=1;exitX=0.5;exitY=1;exitDx=0;exitDy=0;entryX=0.5;entryY=0;entryDx=0;entryDy=0;endArrow=none;endFill=0;" edge="1" parent="1" source="H6YnW9RVQ337V4yiGJH3-5" target="UvikcmdrLjOBELN9xH5h-52">
          <mxGeometry relative="1" as="geometry" />
        </mxCell>
        <mxCell id="H6YnW9RVQ337V4yiGJH3-5" value="WAREHOUSE" style="rounded=0;whiteSpace=wrap;html=1;labelBackgroundColor=none;" parent="1" vertex="1">
          <mxGeometry x="125" y="350" width="100" height="40" as="geometry" />
        </mxCell>
        <mxCell id="UvikcmdrLjOBELN9xH5h-51" style="edgeStyle=none;rounded=0;orthogonalLoop=1;jettySize=auto;html=1;exitX=1;exitY=0.5;exitDx=0;exitDy=0;entryX=0;entryY=0.5;entryDx=0;entryDy=0;endArrow=none;endFill=0;" edge="1" parent="1" source="H6YnW9RVQ337V4yiGJH3-6" target="UvikcmdrLjOBELN9xH5h-50">
          <mxGeometry relative="1" as="geometry" />
        </mxCell>
        <mxCell id="H6YnW9RVQ337V4yiGJH3-6" value="BRANCH" style="rounded=0;whiteSpace=wrap;html=1;labelBackgroundColor=none;" parent="1" vertex="1">
          <mxGeometry x="400" y="118.75" width="100" height="40" as="geometry" />
        </mxCell>
        <mxCell id="UvikcmdrLjOBELN9xH5h-22" style="edgeStyle=none;rounded=0;orthogonalLoop=1;jettySize=auto;html=1;exitX=1;exitY=0.5;exitDx=0;exitDy=0;entryX=0;entryY=0.5;entryDx=0;entryDy=0;endArrow=none;endFill=0;" edge="1" parent="1" source="H6YnW9RVQ337V4yiGJH3-7" target="H6YnW9RVQ337V4yiGJH3-102">
          <mxGeometry relative="1" as="geometry" />
        </mxCell>
        <mxCell id="H6YnW9RVQ337V4yiGJH3-7" value="EMPLOYEE" style="rounded=0;whiteSpace=wrap;html=1;labelBackgroundColor=none;" parent="1" vertex="1">
          <mxGeometry x="125" y="118.75" width="100" height="40" as="geometry" />
        </mxCell>
        <mxCell id="H6YnW9RVQ337V4yiGJH3-8" value="ORDER" style="rounded=0;whiteSpace=wrap;html=1;labelBackgroundColor=none;" parent="1" vertex="1">
          <mxGeometry x="367.5" y="430" width="100" height="40" as="geometry" />
        </mxCell>
        <mxCell id="UvikcmdrLjOBELN9xH5h-43" style="edgeStyle=none;rounded=0;orthogonalLoop=1;jettySize=auto;html=1;exitX=1;exitY=0;exitDx=0;exitDy=0;entryX=0;entryY=0.5;entryDx=0;entryDy=0;endArrow=none;endFill=0;" edge="1" parent="1" source="H6YnW9RVQ337V4yiGJH3-9" target="H6YnW9RVQ337V4yiGJH3-28">
          <mxGeometry relative="1" as="geometry" />
        </mxCell>
        <mxCell id="UvikcmdrLjOBELN9xH5h-44" style="edgeStyle=none;rounded=0;orthogonalLoop=1;jettySize=auto;html=1;exitX=1;exitY=0.5;exitDx=0;exitDy=0;entryX=0;entryY=0.5;entryDx=0;entryDy=0;endArrow=none;endFill=0;" edge="1" parent="1" source="H6YnW9RVQ337V4yiGJH3-9" target="H6YnW9RVQ337V4yiGJH3-23">
          <mxGeometry relative="1" as="geometry" />
        </mxCell>
        <mxCell id="UvikcmdrLjOBELN9xH5h-45" style="edgeStyle=none;rounded=0;orthogonalLoop=1;jettySize=auto;html=1;exitX=0.75;exitY=1;exitDx=0;exitDy=0;entryX=0.5;entryY=0;entryDx=0;entryDy=0;endArrow=none;endFill=0;" edge="1" parent="1" source="H6YnW9RVQ337V4yiGJH3-9" target="H6YnW9RVQ337V4yiGJH3-25">
          <mxGeometry relative="1" as="geometry" />
        </mxCell>
        <mxCell id="UvikcmdrLjOBELN9xH5h-66" style="edgeStyle=none;rounded=0;orthogonalLoop=1;jettySize=auto;html=1;exitX=0.75;exitY=0;exitDx=0;exitDy=0;entryX=1;entryY=0.5;entryDx=0;entryDy=0;endArrow=none;endFill=0;" edge="1" parent="1" source="H6YnW9RVQ337V4yiGJH3-9" target="H6YnW9RVQ337V4yiGJH3-91">
          <mxGeometry relative="1" as="geometry" />
        </mxCell>
        <mxCell id="H6YnW9RVQ337V4yiGJH3-9" value="SUPPLIER" style="rounded=0;whiteSpace=wrap;html=1;labelBackgroundColor=none;" parent="1" vertex="1">
          <mxGeometry x="631.25" y="350" width="100" height="40" as="geometry" />
        </mxCell>
        <mxCell id="UvikcmdrLjOBELN9xH5h-32" style="edgeStyle=none;rounded=0;orthogonalLoop=1;jettySize=auto;html=1;exitX=1;exitY=0.5;exitDx=0;exitDy=0;entryX=0;entryY=0.5;entryDx=0;entryDy=0;endArrow=none;endFill=0;" edge="1" parent="1" source="H6YnW9RVQ337V4yiGJH3-11" target="H6YnW9RVQ337V4yiGJH3-5">
          <mxGeometry relative="1" as="geometry" />
        </mxCell>
        <mxCell id="H6YnW9RVQ337V4yiGJH3-11" value="wNAME" style="ellipse;whiteSpace=wrap;html=1;labelBackgroundColor=none;rounded=0;" parent="1" vertex="1">
          <mxGeometry x="22.5" y="350" width="70" height="40" as="geometry" />
        </mxCell>
        <mxCell id="UvikcmdrLjOBELN9xH5h-24" style="edgeStyle=none;rounded=0;orthogonalLoop=1;jettySize=auto;html=1;exitX=0.5;exitY=1;exitDx=0;exitDy=0;entryX=0.25;entryY=0;entryDx=0;entryDy=0;endArrow=none;endFill=0;" edge="1" parent="1" source="H6YnW9RVQ337V4yiGJH3-12" target="H6YnW9RVQ337V4yiGJH3-6">
          <mxGeometry relative="1" as="geometry" />
        </mxCell>
        <mxCell id="H6YnW9RVQ337V4yiGJH3-12" value="bNAME" style="ellipse;whiteSpace=wrap;html=1;labelBackgroundColor=none;rounded=0;" parent="1" vertex="1">
          <mxGeometry x="390" y="61.25" width="70" height="40" as="geometry" />
        </mxCell>
        <mxCell id="H6YnW9RVQ337V4yiGJH3-13" value="eNAME" style="ellipse;whiteSpace=wrap;html=1;labelBackgroundColor=none;rounded=0;" parent="1" vertex="1">
          <mxGeometry x="75" y="28.75" width="70" height="40" as="geometry" />
        </mxCell>
        <mxCell id="H6YnW9RVQ337V4yiGJH3-14" value="sNAME" style="ellipse;whiteSpace=wrap;html=1;labelBackgroundColor=none;rounded=0;" parent="1" vertex="1">
          <mxGeometry x="760" y="420" width="70" height="40" as="geometry" />
        </mxCell>
        <mxCell id="UvikcmdrLjOBELN9xH5h-25" style="edgeStyle=none;rounded=0;orthogonalLoop=1;jettySize=auto;html=1;exitX=0;exitY=1;exitDx=0;exitDy=0;entryX=0.75;entryY=0;entryDx=0;entryDy=0;endArrow=none;endFill=0;" edge="1" parent="1" source="H6YnW9RVQ337V4yiGJH3-20" target="H6YnW9RVQ337V4yiGJH3-6">
          <mxGeometry relative="1" as="geometry" />
        </mxCell>
        <mxCell id="H6YnW9RVQ337V4yiGJH3-20" value="bADDRESS" style="ellipse;whiteSpace=wrap;html=1;strokeWidth=3;labelBackgroundColor=none;rounded=0;" parent="1" vertex="1">
          <mxGeometry x="471.25" y="61.25" width="70" height="40" as="geometry" />
        </mxCell>
        <mxCell id="UvikcmdrLjOBELN9xH5h-15" style="edgeStyle=none;rounded=0;orthogonalLoop=1;jettySize=auto;html=1;exitX=1;exitY=1;exitDx=0;exitDy=0;entryX=0;entryY=1;entryDx=0;entryDy=0;endArrow=none;endFill=0;" edge="1" parent="1" source="H6YnW9RVQ337V4yiGJH3-21" target="H6YnW9RVQ337V4yiGJH3-7">
          <mxGeometry relative="1" as="geometry" />
        </mxCell>
        <mxCell id="H6YnW9RVQ337V4yiGJH3-21" value="eADDRESS" style="ellipse;whiteSpace=wrap;html=1;strokeWidth=3;labelBackgroundColor=none;rounded=0;" parent="1" vertex="1">
          <mxGeometry x="27.5" y="126.25" width="70" height="40" as="geometry" />
        </mxCell>
        <mxCell id="UvikcmdrLjOBELN9xH5h-33" style="edgeStyle=none;rounded=0;orthogonalLoop=1;jettySize=auto;html=1;exitX=1;exitY=0;exitDx=0;exitDy=0;entryX=0;entryY=1;entryDx=0;entryDy=0;endArrow=none;endFill=0;" edge="1" parent="1" source="H6YnW9RVQ337V4yiGJH3-22" target="H6YnW9RVQ337V4yiGJH3-5">
          <mxGeometry relative="1" as="geometry" />
        </mxCell>
        <mxCell id="H6YnW9RVQ337V4yiGJH3-22" value="wADDRESS" style="ellipse;whiteSpace=wrap;html=1;strokeWidth=3;labelBackgroundColor=none;rounded=0;" parent="1" vertex="1">
          <mxGeometry x="55" y="410" width="70" height="40" as="geometry" />
        </mxCell>
        <mxCell id="H6YnW9RVQ337V4yiGJH3-23" value="sADDRESS" style="ellipse;whiteSpace=wrap;html=1;strokeWidth=3;labelBackgroundColor=none;rounded=0;" parent="1" vertex="1">
          <mxGeometry x="747.5" y="360" width="70" height="40" as="geometry" />
        </mxCell>
        <mxCell id="H6YnW9RVQ337V4yiGJH3-61" style="edgeStyle=none;orthogonalLoop=1;jettySize=auto;html=1;exitX=1;exitY=1;exitDx=0;exitDy=0;endArrow=none;endFill=0;elbow=vertical;" parent="1" source="H6YnW9RVQ337V4yiGJH3-25" target="H6YnW9RVQ337V4yiGJH3-14" edge="1">
          <mxGeometry relative="1" as="geometry" />
        </mxCell>
        <mxCell id="H6YnW9RVQ337V4yiGJH3-25" value="FULLNAME" style="ellipse;whiteSpace=wrap;html=1;strokeWidth=3;labelBackgroundColor=none;rounded=0;" parent="1" vertex="1">
          <mxGeometry x="678.75" y="400" width="70" height="40" as="geometry" />
        </mxCell>
        <mxCell id="UvikcmdrLjOBELN9xH5h-13" style="edgeStyle=none;rounded=0;orthogonalLoop=1;jettySize=auto;html=1;exitX=0.5;exitY=0;exitDx=0;exitDy=0;entryX=1;entryY=1;entryDx=0;entryDy=0;endArrow=none;endFill=0;" edge="1" parent="1" source="H6YnW9RVQ337V4yiGJH3-26" target="H6YnW9RVQ337V4yiGJH3-13">
          <mxGeometry relative="1" as="geometry" />
        </mxCell>
        <mxCell id="UvikcmdrLjOBELN9xH5h-14" style="edgeStyle=none;rounded=0;orthogonalLoop=1;jettySize=auto;html=1;exitX=0;exitY=0.5;exitDx=0;exitDy=0;entryX=1;entryY=0.5;entryDx=0;entryDy=0;endArrow=none;endFill=0;" edge="1" parent="1" source="H6YnW9RVQ337V4yiGJH3-26" target="H6YnW9RVQ337V4yiGJH3-31">
          <mxGeometry relative="1" as="geometry" />
        </mxCell>
        <mxCell id="UvikcmdrLjOBELN9xH5h-17" style="edgeStyle=none;rounded=0;orthogonalLoop=1;jettySize=auto;html=1;exitX=0.5;exitY=1;exitDx=0;exitDy=0;entryX=0.5;entryY=0;entryDx=0;entryDy=0;endArrow=none;endFill=0;" edge="1" parent="1" source="H6YnW9RVQ337V4yiGJH3-26" target="H6YnW9RVQ337V4yiGJH3-7">
          <mxGeometry relative="1" as="geometry" />
        </mxCell>
        <mxCell id="H6YnW9RVQ337V4yiGJH3-26" value="FULLNAME" style="ellipse;whiteSpace=wrap;html=1;strokeWidth=3;labelBackgroundColor=none;rounded=0;" parent="1" vertex="1">
          <mxGeometry x="117.5" y="71.25" width="70" height="40" as="geometry" />
        </mxCell>
        <mxCell id="UvikcmdrLjOBELN9xH5h-18" style="edgeStyle=none;rounded=0;orthogonalLoop=1;jettySize=auto;html=1;exitX=0;exitY=1;exitDx=0;exitDy=0;entryX=0.75;entryY=0;entryDx=0;entryDy=0;endArrow=none;endFill=0;" edge="1" parent="1" source="H6YnW9RVQ337V4yiGJH3-27" target="H6YnW9RVQ337V4yiGJH3-7">
          <mxGeometry relative="1" as="geometry" />
        </mxCell>
        <mxCell id="H6YnW9RVQ337V4yiGJH3-27" value="ePHONE" style="ellipse;whiteSpace=wrap;html=1;labelBackgroundColor=none;rounded=0;" parent="1" vertex="1">
          <mxGeometry x="190" y="58.75" width="70" height="40" as="geometry" />
        </mxCell>
        <mxCell id="H6YnW9RVQ337V4yiGJH3-28" value="sPHONE" style="ellipse;whiteSpace=wrap;html=1;labelBackgroundColor=none;rounded=0;" parent="1" vertex="1">
          <mxGeometry x="737.5" y="310" width="70" height="40" as="geometry" />
        </mxCell>
        <mxCell id="H6YnW9RVQ337V4yiGJH3-60" style="edgeStyle=none;orthogonalLoop=1;jettySize=auto;html=1;exitX=1;exitY=0;exitDx=0;exitDy=0;entryX=0.319;entryY=0.992;entryDx=0;entryDy=0;entryPerimeter=0;endArrow=none;endFill=0;elbow=vertical;" parent="1" source="H6YnW9RVQ337V4yiGJH3-30" target="H6YnW9RVQ337V4yiGJH3-25" edge="1">
          <mxGeometry relative="1" as="geometry" />
        </mxCell>
        <mxCell id="H6YnW9RVQ337V4yiGJH3-30" value="sSURNAME" style="ellipse;whiteSpace=wrap;html=1;labelBackgroundColor=none;rounded=0;" parent="1" vertex="1">
          <mxGeometry x="667.5" y="450" width="70" height="40" as="geometry" />
        </mxCell>
        <mxCell id="H6YnW9RVQ337V4yiGJH3-31" value="eSURNAME" style="ellipse;whiteSpace=wrap;html=1;labelBackgroundColor=none;rounded=0;" parent="1" vertex="1">
          <mxGeometry x="40" y="68.75" width="70" height="40" as="geometry" />
        </mxCell>
        <mxCell id="UvikcmdrLjOBELN9xH5h-16" style="edgeStyle=none;rounded=0;orthogonalLoop=1;jettySize=auto;html=1;exitX=0.5;exitY=0;exitDx=0;exitDy=0;endArrow=none;endFill=0;" edge="1" parent="1" source="H6YnW9RVQ337V4yiGJH3-32" target="H6YnW9RVQ337V4yiGJH3-7">
          <mxGeometry relative="1" as="geometry" />
        </mxCell>
        <mxCell id="H6YnW9RVQ337V4yiGJH3-32" value="SALARY" style="ellipse;whiteSpace=wrap;html=1;labelBackgroundColor=none;rounded=0;" parent="1" vertex="1">
          <mxGeometry x="65" y="176.25" width="70" height="40" as="geometry" />
        </mxCell>
        <mxCell id="UvikcmdrLjOBELN9xH5h-19" style="edgeStyle=none;rounded=0;orthogonalLoop=1;jettySize=auto;html=1;exitX=0.5;exitY=0;exitDx=0;exitDy=0;entryX=0.57;entryY=1.008;entryDx=0;entryDy=0;entryPerimeter=0;endArrow=none;endFill=0;" edge="1" parent="1" source="H6YnW9RVQ337V4yiGJH3-33" target="H6YnW9RVQ337V4yiGJH3-7">
          <mxGeometry relative="1" as="geometry" />
        </mxCell>
        <mxCell id="H6YnW9RVQ337V4yiGJH3-33" value="eID" style="ellipse;whiteSpace=wrap;html=1;fontStyle=4;labelBorderColor=none;labelBackgroundColor=none;rounded=0;" parent="1" vertex="1">
          <mxGeometry x="145" y="176.25" width="70" height="40" as="geometry" />
        </mxCell>
        <mxCell id="UvikcmdrLjOBELN9xH5h-54" style="edgeStyle=none;rounded=0;orthogonalLoop=1;jettySize=auto;html=1;exitX=1;exitY=0.5;exitDx=0;exitDy=0;entryX=0;entryY=0.5;entryDx=0;entryDy=0;endArrow=none;endFill=0;" edge="1" parent="1" source="H6YnW9RVQ337V4yiGJH3-34" target="H6YnW9RVQ337V4yiGJH3-8">
          <mxGeometry relative="1" as="geometry" />
        </mxCell>
        <mxCell id="H6YnW9RVQ337V4yiGJH3-34" value="&lt;u&gt;CODE&lt;/u&gt;" style="ellipse;whiteSpace=wrap;html=1;labelBackgroundColor=none;rounded=0;" parent="1" vertex="1">
          <mxGeometry x="291.25" y="430" width="70" height="40" as="geometry" />
        </mxCell>
        <mxCell id="UvikcmdrLjOBELN9xH5h-55" style="edgeStyle=none;rounded=0;orthogonalLoop=1;jettySize=auto;html=1;exitX=0;exitY=0.5;exitDx=0;exitDy=0;entryX=1;entryY=0.5;entryDx=0;entryDy=0;endArrow=none;endFill=0;" edge="1" parent="1" source="H6YnW9RVQ337V4yiGJH3-36" target="H6YnW9RVQ337V4yiGJH3-8">
          <mxGeometry relative="1" as="geometry" />
        </mxCell>
        <mxCell id="H6YnW9RVQ337V4yiGJH3-36" value="QUANTITY" style="ellipse;whiteSpace=wrap;html=1;labelBackgroundColor=none;rounded=0;" parent="1" vertex="1">
          <mxGeometry x="475" y="430" width="70" height="40" as="geometry" />
        </mxCell>
        <mxCell id="UvikcmdrLjOBELN9xH5h-39" style="edgeStyle=none;rounded=0;orthogonalLoop=1;jettySize=auto;html=1;exitX=1;exitY=0.5;exitDx=0;exitDy=0;entryX=0;entryY=1;entryDx=0;entryDy=0;endArrow=none;endFill=0;" edge="1" parent="1" source="H6YnW9RVQ337V4yiGJH3-75" target="UvikcmdrLjOBELN9xH5h-1">
          <mxGeometry relative="1" as="geometry" />
        </mxCell>
        <mxCell id="UvikcmdrLjOBELN9xH5h-40" style="edgeStyle=none;rounded=0;orthogonalLoop=1;jettySize=auto;html=1;exitX=0;exitY=0.5;exitDx=0;exitDy=0;entryX=1;entryY=0.25;entryDx=0;entryDy=0;endArrow=none;endFill=0;" edge="1" parent="1" source="H6YnW9RVQ337V4yiGJH3-75" target="H6YnW9RVQ337V4yiGJH3-5">
          <mxGeometry relative="1" as="geometry" />
        </mxCell>
        <mxCell id="UvikcmdrLjOBELN9xH5h-41" style="edgeStyle=none;rounded=0;orthogonalLoop=1;jettySize=auto;html=1;exitX=1;exitY=0;exitDx=0;exitDy=0;entryX=0.5;entryY=1;entryDx=0;entryDy=0;endArrow=none;endFill=0;" edge="1" parent="1" source="H6YnW9RVQ337V4yiGJH3-75" target="H6YnW9RVQ337V4yiGJH3-77">
          <mxGeometry relative="1" as="geometry" />
        </mxCell>
        <mxCell id="H6YnW9RVQ337V4yiGJH3-75" value="HAS" style="rhombus;whiteSpace=wrap;html=1;" parent="1" vertex="1">
          <mxGeometry x="440" y="230" width="105" height="75" as="geometry" />
        </mxCell>
        <mxCell id="H6YnW9RVQ337V4yiGJH3-76" style="edgeStyle=none;orthogonalLoop=1;jettySize=auto;html=1;exitX=1;exitY=0;exitDx=0;exitDy=0;endArrow=none;endFill=0;elbow=vertical;" parent="1" source="H6YnW9RVQ337V4yiGJH3-75" target="H6YnW9RVQ337V4yiGJH3-75" edge="1">
          <mxGeometry relative="1" as="geometry" />
        </mxCell>
        <mxCell id="H6YnW9RVQ337V4yiGJH3-77" value="INSTOCK" style="ellipse;whiteSpace=wrap;html=1;labelBackgroundColor=none;rounded=0;" parent="1" vertex="1">
          <mxGeometry x="500" y="190" width="70" height="40" as="geometry" />
        </mxCell>
        <mxCell id="H6YnW9RVQ337V4yiGJH3-81" value="N" style="text;html=1;strokeColor=none;fillColor=none;align=center;verticalAlign=middle;whiteSpace=wrap;rounded=0;" parent="1" vertex="1">
          <mxGeometry x="427.5" y="240" width="45" height="25" as="geometry" />
        </mxCell>
        <mxCell id="H6YnW9RVQ337V4yiGJH3-82" value="M" style="text;html=1;strokeColor=none;fillColor=none;align=center;verticalAlign=middle;whiteSpace=wrap;rounded=0;" parent="1" vertex="1">
          <mxGeometry x="512.5" y="240" width="45" height="25" as="geometry" />
        </mxCell>
        <mxCell id="H6YnW9RVQ337V4yiGJH3-83" value="1..N" style="text;html=1;strokeColor=none;fillColor=none;align=center;verticalAlign=middle;whiteSpace=wrap;rounded=0;" parent="1" vertex="1">
          <mxGeometry x="117.5" y="332.5" width="45" height="25" as="geometry" />
        </mxCell>
        <mxCell id="H6YnW9RVQ337V4yiGJH3-91" value="SUPPLIES" style="rhombus;whiteSpace=wrap;html=1;" parent="1" vertex="1">
          <mxGeometry x="628.75" y="230" width="105" height="75" as="geometry" />
        </mxCell>
        <mxCell id="H6YnW9RVQ337V4yiGJH3-98" value="N" style="text;html=1;strokeColor=none;fillColor=none;align=center;verticalAlign=middle;whiteSpace=wrap;rounded=0;" parent="1" vertex="1">
          <mxGeometry x="303.75" y="240" width="45" height="25" as="geometry" />
        </mxCell>
        <mxCell id="H6YnW9RVQ337V4yiGJH3-99" value="1..N" style="text;html=1;strokeColor=none;fillColor=none;align=center;verticalAlign=middle;whiteSpace=wrap;rounded=0;" parent="1" vertex="1">
          <mxGeometry x="596.25" y="141.25" width="45" height="25" as="geometry" />
        </mxCell>
        <mxCell id="H6YnW9RVQ337V4yiGJH3-100" value="1" style="text;html=1;strokeColor=none;fillColor=none;align=center;verticalAlign=middle;whiteSpace=wrap;rounded=0;" parent="1" vertex="1">
          <mxGeometry x="215" y="240" width="45" height="25" as="geometry" />
        </mxCell>
        <mxCell id="H6YnW9RVQ337V4yiGJH3-101" value="1..1" style="text;html=1;strokeColor=none;fillColor=none;align=center;verticalAlign=middle;whiteSpace=wrap;rounded=0;" parent="1" vertex="1">
          <mxGeometry x="382.5" y="151.25" width="45" height="25" as="geometry" />
        </mxCell>
        <mxCell id="UvikcmdrLjOBELN9xH5h-23" style="edgeStyle=none;rounded=0;orthogonalLoop=1;jettySize=auto;html=1;exitX=1;exitY=0.5;exitDx=0;exitDy=0;entryX=0;entryY=0.5;entryDx=0;entryDy=0;endArrow=none;endFill=0;" edge="1" parent="1" source="H6YnW9RVQ337V4yiGJH3-102" target="H6YnW9RVQ337V4yiGJH3-6">
          <mxGeometry relative="1" as="geometry" />
        </mxCell>
        <mxCell id="H6YnW9RVQ337V4yiGJH3-102" value="WORKS" style="rhombus;whiteSpace=wrap;html=1;" parent="1" vertex="1">
          <mxGeometry x="260" y="101.25" width="105" height="75" as="geometry" />
        </mxCell>
        <mxCell id="H6YnW9RVQ337V4yiGJH3-108" value="1..1" style="text;html=1;strokeColor=none;fillColor=none;align=center;verticalAlign=middle;whiteSpace=wrap;rounded=0;" parent="1" vertex="1">
          <mxGeometry x="215" y="118.75" width="45" height="25" as="geometry" />
        </mxCell>
        <mxCell id="H6YnW9RVQ337V4yiGJH3-111" value="1..N" style="text;html=1;strokeColor=none;fillColor=none;align=center;verticalAlign=middle;whiteSpace=wrap;rounded=0;" parent="1" vertex="1">
          <mxGeometry x="365" y="118.75" width="45" height="25" as="geometry" />
        </mxCell>
        <mxCell id="H6YnW9RVQ337V4yiGJH3-112" value="N" style="text;html=1;strokeColor=none;fillColor=none;align=center;verticalAlign=middle;whiteSpace=wrap;rounded=0;" parent="1" vertex="1">
          <mxGeometry x="246.25" y="111.25" width="45" height="25" as="geometry" />
        </mxCell>
        <mxCell id="H6YnW9RVQ337V4yiGJH3-113" value="1" style="text;html=1;strokeColor=none;fillColor=none;align=center;verticalAlign=middle;whiteSpace=wrap;rounded=0;" parent="1" vertex="1">
          <mxGeometry x="335" y="111.25" width="45" height="25" as="geometry" />
        </mxCell>
        <mxCell id="UvikcmdrLjOBELN9xH5h-30" style="edgeStyle=none;rounded=0;orthogonalLoop=1;jettySize=auto;html=1;exitX=1;exitY=0.5;exitDx=0;exitDy=0;endArrow=none;endFill=0;" edge="1" parent="1" source="H6YnW9RVQ337V4yiGJH3-114">
          <mxGeometry relative="1" as="geometry">
            <mxPoint x="420" y="160" as="targetPoint" />
          </mxGeometry>
        </mxCell>
        <mxCell id="UvikcmdrLjOBELN9xH5h-42" style="edgeStyle=none;rounded=0;orthogonalLoop=1;jettySize=auto;html=1;exitX=0;exitY=0.5;exitDx=0;exitDy=0;entryX=0.25;entryY=0;entryDx=0;entryDy=0;endArrow=none;endFill=0;" edge="1" parent="1" source="H6YnW9RVQ337V4yiGJH3-114" target="H6YnW9RVQ337V4yiGJH3-5">
          <mxGeometry relative="1" as="geometry" />
        </mxCell>
        <mxCell id="H6YnW9RVQ337V4yiGJH3-114" value="PROVIDES" style="rhombus;whiteSpace=wrap;html=1;" parent="1" vertex="1">
          <mxGeometry x="230" y="230" width="105" height="75" as="geometry" />
        </mxCell>
        <mxCell id="UvikcmdrLjOBELN9xH5h-34" style="edgeStyle=none;rounded=0;orthogonalLoop=1;jettySize=auto;html=1;exitX=0;exitY=0.5;exitDx=0;exitDy=0;entryX=1;entryY=0.5;entryDx=0;entryDy=0;endArrow=none;endFill=0;" edge="1" parent="1" source="H6YnW9RVQ337V4yiGJH3-115" target="H6YnW9RVQ337V4yiGJH3-5">
          <mxGeometry relative="1" as="geometry" />
        </mxCell>
        <mxCell id="UvikcmdrLjOBELN9xH5h-35" style="edgeStyle=none;rounded=0;orthogonalLoop=1;jettySize=auto;html=1;exitX=1;exitY=0.5;exitDx=0;exitDy=0;entryX=0;entryY=0.5;entryDx=0;entryDy=0;endArrow=none;endFill=0;" edge="1" parent="1" source="H6YnW9RVQ337V4yiGJH3-115" target="H6YnW9RVQ337V4yiGJH3-9">
          <mxGeometry relative="1" as="geometry" />
        </mxCell>
        <mxCell id="H6YnW9RVQ337V4yiGJH3-115" value="CONNECTS" style="rhombus;whiteSpace=wrap;html=1;" parent="1" vertex="1">
          <mxGeometry x="385" y="332.5" width="105" height="75" as="geometry" />
        </mxCell>
        <mxCell id="UvikcmdrLjOBELN9xH5h-64" style="edgeStyle=none;rounded=0;orthogonalLoop=1;jettySize=auto;html=1;exitX=0.25;exitY=1;exitDx=0;exitDy=0;entryX=0;entryY=0.5;entryDx=0;entryDy=0;endArrow=none;endFill=0;" edge="1" parent="1" source="UvikcmdrLjOBELN9xH5h-1" target="H6YnW9RVQ337V4yiGJH3-91">
          <mxGeometry relative="1" as="geometry" />
        </mxCell>
        <mxCell id="UvikcmdrLjOBELN9xH5h-1" value="PRODUCT" style="rounded=0;whiteSpace=wrap;html=1;labelBackgroundColor=none;" vertex="1" parent="1">
          <mxGeometry x="631.25" y="118.75" width="100" height="40" as="geometry" />
        </mxCell>
        <mxCell id="UvikcmdrLjOBELN9xH5h-28" style="edgeStyle=none;rounded=0;orthogonalLoop=1;jettySize=auto;html=1;exitX=0;exitY=0.5;exitDx=0;exitDy=0;entryX=1;entryY=0.5;entryDx=0;entryDy=0;endArrow=none;endFill=0;" edge="1" parent="1" source="UvikcmdrLjOBELN9xH5h-3" target="UvikcmdrLjOBELN9xH5h-1">
          <mxGeometry relative="1" as="geometry" />
        </mxCell>
        <mxCell id="UvikcmdrLjOBELN9xH5h-3" value="pNAME" style="ellipse;whiteSpace=wrap;html=1;labelBackgroundColor=none;rounded=0;" vertex="1" parent="1">
          <mxGeometry x="746.25" y="118.75" width="70" height="40" as="geometry" />
        </mxCell>
        <mxCell id="UvikcmdrLjOBELN9xH5h-4" style="edgeStyle=none;orthogonalLoop=1;jettySize=auto;html=1;exitX=0.5;exitY=1;exitDx=0;exitDy=0;endArrow=none;endFill=0;elbow=vertical;" edge="1" parent="1" source="UvikcmdrLjOBELN9xH5h-5" target="UvikcmdrLjOBELN9xH5h-1">
          <mxGeometry relative="1" as="geometry" />
        </mxCell>
        <mxCell id="UvikcmdrLjOBELN9xH5h-5" value="TYPE" style="ellipse;whiteSpace=wrap;html=1;labelBackgroundColor=none;rounded=0;" vertex="1" parent="1">
          <mxGeometry x="608.75" y="61.25" width="70" height="40" as="geometry" />
        </mxCell>
        <mxCell id="UvikcmdrLjOBELN9xH5h-26" style="edgeStyle=none;rounded=0;orthogonalLoop=1;jettySize=auto;html=1;exitX=0.5;exitY=1;exitDx=0;exitDy=0;entryX=0.5;entryY=0;entryDx=0;entryDy=0;endArrow=none;endFill=0;" edge="1" parent="1" source="UvikcmdrLjOBELN9xH5h-7" target="UvikcmdrLjOBELN9xH5h-1">
          <mxGeometry relative="1" as="geometry" />
        </mxCell>
        <mxCell id="UvikcmdrLjOBELN9xH5h-7" value="PRODUCER" style="ellipse;whiteSpace=wrap;html=1;labelBackgroundColor=none;rounded=0;" vertex="1" parent="1">
          <mxGeometry x="676.25" y="28.75" width="70" height="40" as="geometry" />
        </mxCell>
        <mxCell id="UvikcmdrLjOBELN9xH5h-8" style="edgeStyle=none;orthogonalLoop=1;jettySize=auto;html=1;exitX=0;exitY=1;exitDx=0;exitDy=0;entryX=0.75;entryY=0;entryDx=0;entryDy=0;endArrow=none;endFill=0;elbow=vertical;" edge="1" parent="1" source="UvikcmdrLjOBELN9xH5h-9" target="UvikcmdrLjOBELN9xH5h-1">
          <mxGeometry relative="1" as="geometry" />
        </mxCell>
        <mxCell id="UvikcmdrLjOBELN9xH5h-9" value="PRICE" style="ellipse;whiteSpace=wrap;html=1;labelBackgroundColor=none;rounded=0;" vertex="1" parent="1">
          <mxGeometry x="721.25" y="71.25" width="70" height="40" as="geometry" />
        </mxCell>
        <mxCell id="UvikcmdrLjOBELN9xH5h-10" value="1..M" style="text;html=1;strokeColor=none;fillColor=none;align=center;verticalAlign=middle;whiteSpace=wrap;rounded=0;" vertex="1" parent="1">
          <mxGeometry x="215" y="335" width="45" height="25" as="geometry" />
        </mxCell>
        <mxCell id="UvikcmdrLjOBELN9xH5h-29" style="edgeStyle=none;rounded=0;orthogonalLoop=1;jettySize=auto;html=1;exitX=0;exitY=0;exitDx=0;exitDy=0;entryX=1;entryY=1;entryDx=0;entryDy=0;endArrow=none;endFill=0;" edge="1" parent="1" source="UvikcmdrLjOBELN9xH5h-12" target="UvikcmdrLjOBELN9xH5h-1">
          <mxGeometry relative="1" as="geometry" />
        </mxCell>
        <mxCell id="UvikcmdrLjOBELN9xH5h-12" value="ID" style="ellipse;whiteSpace=wrap;html=1;fontStyle=4;labelBorderColor=none;labelBackgroundColor=none;rounded=0;" vertex="1" parent="1">
          <mxGeometry x="728.75" y="158.75" width="70" height="40" as="geometry" />
        </mxCell>
        <mxCell id="UvikcmdrLjOBELN9xH5h-48" style="edgeStyle=none;rounded=0;orthogonalLoop=1;jettySize=auto;html=1;exitX=1;exitY=0;exitDx=0;exitDy=0;entryX=0.25;entryY=1;entryDx=0;entryDy=0;endArrow=none;endFill=0;" edge="1" parent="1" source="UvikcmdrLjOBELN9xH5h-47" target="H6YnW9RVQ337V4yiGJH3-9">
          <mxGeometry relative="1" as="geometry" />
        </mxCell>
        <mxCell id="UvikcmdrLjOBELN9xH5h-47" value="sID" style="ellipse;whiteSpace=wrap;html=1;fontStyle=4;labelBorderColor=none;labelBackgroundColor=none;rounded=0;" vertex="1" parent="1">
          <mxGeometry x="571.25" y="400" width="70" height="40" as="geometry" />
        </mxCell>
        <mxCell id="UvikcmdrLjOBELN9xH5h-50" value="bID" style="ellipse;whiteSpace=wrap;html=1;fontStyle=4;labelBorderColor=none;labelBackgroundColor=none;rounded=0;" vertex="1" parent="1">
          <mxGeometry x="510" y="118.75" width="70" height="40" as="geometry" />
        </mxCell>
        <mxCell id="UvikcmdrLjOBELN9xH5h-52" value="wID" style="ellipse;whiteSpace=wrap;html=1;fontStyle=4;labelBorderColor=none;labelBackgroundColor=none;rounded=0;" vertex="1" parent="1">
          <mxGeometry x="159" y="410" width="70" height="40" as="geometry" />
        </mxCell>
        <mxCell id="UvikcmdrLjOBELN9xH5h-56" value="1..N" style="text;html=1;strokeColor=none;fillColor=none;align=center;verticalAlign=middle;whiteSpace=wrap;rounded=0;" vertex="1" parent="1">
          <mxGeometry x="375" y="128.75" width="45" height="25" as="geometry" />
        </mxCell>
        <mxCell id="UvikcmdrLjOBELN9xH5h-58" value="1..N" style="text;html=1;strokeColor=none;fillColor=none;align=center;verticalAlign=middle;whiteSpace=wrap;rounded=0;" vertex="1" parent="1">
          <mxGeometry x="215" y="367.5" width="45" height="25" as="geometry" />
        </mxCell>
        <mxCell id="UvikcmdrLjOBELN9xH5h-59" value="1..N" style="text;html=1;strokeColor=none;fillColor=none;align=center;verticalAlign=middle;whiteSpace=wrap;rounded=0;" vertex="1" parent="1">
          <mxGeometry x="650" y="153.75" width="45" height="25" as="geometry" />
        </mxCell>
        <mxCell id="UvikcmdrLjOBELN9xH5h-60" value="1..M" style="text;html=1;strokeColor=none;fillColor=none;align=center;verticalAlign=middle;whiteSpace=wrap;rounded=0;" vertex="1" parent="1">
          <mxGeometry x="596.25" y="365" width="45" height="25" as="geometry" />
        </mxCell>
        <mxCell id="UvikcmdrLjOBELN9xH5h-61" value="1..M" style="text;html=1;strokeColor=none;fillColor=none;align=center;verticalAlign=middle;whiteSpace=wrap;rounded=0;" vertex="1" parent="1">
          <mxGeometry x="667.5" y="332.5" width="45" height="25" as="geometry" />
        </mxCell>
        <mxCell id="UvikcmdrLjOBELN9xH5h-62" value="N" style="text;html=1;strokeColor=none;fillColor=none;align=center;verticalAlign=middle;whiteSpace=wrap;rounded=0;" vertex="1" parent="1">
          <mxGeometry x="467.5" y="350" width="45" height="25" as="geometry" />
        </mxCell>
        <mxCell id="UvikcmdrLjOBELN9xH5h-63" value="N" style="text;html=1;strokeColor=none;fillColor=none;align=center;verticalAlign=middle;whiteSpace=wrap;rounded=0;" vertex="1" parent="1">
          <mxGeometry x="702.5" y="240" width="45" height="25" as="geometry" />
        </mxCell>
        <mxCell id="UvikcmdrLjOBELN9xH5h-67" value="M" style="text;html=1;strokeColor=none;fillColor=none;align=center;verticalAlign=middle;whiteSpace=wrap;rounded=0;" vertex="1" parent="1">
          <mxGeometry x="621.25" y="240" width="45" height="25" as="geometry" />
        </mxCell>
        <mxCell id="UvikcmdrLjOBELN9xH5h-68" value="M" style="text;html=1;strokeColor=none;fillColor=none;align=center;verticalAlign=middle;whiteSpace=wrap;rounded=0;" vertex="1" parent="1">
          <mxGeometry x="365" y="350" width="45" height="25" as="geometry" />
        </mxCell>
        <mxCell id="UvikcmdrLjOBELN9xH5h-70" style="edgeStyle=none;rounded=0;orthogonalLoop=1;jettySize=auto;html=1;exitX=1;exitY=0;exitDx=0;exitDy=0;entryX=0;entryY=1;entryDx=0;entryDy=0;endArrow=none;endFill=0;" edge="1" parent="1" source="UvikcmdrLjOBELN9xH5h-69" target="H6YnW9RVQ337V4yiGJH3-91">
          <mxGeometry relative="1" as="geometry" />
        </mxCell>
        <mxCell id="UvikcmdrLjOBELN9xH5h-69" value="PRICE" style="ellipse;whiteSpace=wrap;html=1;labelBackgroundColor=none;rounded=0;" vertex="1" parent="1">
          <mxGeometry x="580" y="292.5" width="70" height="40" as="geometry" />
        </mxCell>
      </root>
    </mxGraphModel>
  </diagram>
</mxfile>
